<?xml version="1.0" encoding="UTF-8" standalone="no"?>
<svg width="48px" height="48px" viewBox="0 0 48 48" version="1.1" xmlns="http://www.w3.org/2000/svg" xmlns:xlink="http://www.w3.org/1999/xlink">
    <!-- Generator: Sketch 46.2 (44496) - http://www.bohemiancoding.com/sketch -->
    <title>checked</title>
    <desc>Created with Sketch.</desc>
    <defs>
        <polygon id="path-1" points="0 47.9932553 47.9625667 47.9932553 47.9625667 0.0374332553 0 0.0374332553"></polygon>
        <linearGradient x1="50%" y1="0%" x2="50%" y2="102.594868%" id="linearGradient-3">
            <stop stop-color="#86E7FF" offset="0%"></stop>
            <stop stop-color="#86E7FF" offset="100%"></stop>
        </linearGradient>
    </defs>
    <g id="Diseño" stroke="none" stroke-width="1" fill="none" fill-rule="evenodd">
        <g id="encuesta" transform="translate(-388.000000, -170.000000)">
            <g id="checked" transform="translate(388.000000, 170.000000)">
                <mask id="mask-2" fill="white">
                    <use xlink:href="#path-1"></use>
                </mask>
                <g id="Clip-2"></g>
                <path d="M19.582089,36.3373489 L9.02276347,25.7784731 L12.5421639,22.2589602 L19.582089,29.2984356 L35.4202904,13.4597845 L38.9398033,16.979185 L19.582089,36.3373489 Z M23.9812272,0.0374332553 C10.7373864,0.0374332553 0,10.77437 0,24.0186604 C0,37.2630632 10.7373864,48 23.9812272,48 C37.2266417,48 47.9625667,37.2630632 47.9625667,24.0186604 C47.9625667,10.77437 37.2260796,0.0374332553 23.9812272,0.0374332553 L23.9812272,0.0374332553 Z" id="Fill-1" fill="url(#linearGradient-3)" mask="url(#mask-2)"></path>
            </g>
        </g>
    </g>
</svg>