<?xml version="1.0" encoding="UTF-8"?>
<svg width="30px" height="30px" viewBox="0 0 30 30" version="1.1" xmlns="http://www.w3.org/2000/svg" xmlns:xlink="http://www.w3.org/1999/xlink">
    <title>icn-twitter</title>
    <g id="Sitio-completo" stroke="none" stroke-width="1" fill="none" fill-rule="evenodd">
        <g id="website-DNyC" transform="translate(-1274.000000, -35.000000)" fill-rule="nonzero">
            <g id="icn-twitter" transform="translate(1274.000000, 35.000000)">
                <g id="Dark_Blue" fill="#1DA1F2">
                    <circle id="Oval" cx="15" cy="15" r="15"></circle>
                </g>
                <g id="Logo__x2014__FIXED" transform="translate(6.675000, 8.550000)" fill="#FFFFFF">
                    <path d="M5.58,14.3625 C12.2325,14.3625 15.87,8.85 15.87,4.0725 C15.87,3.915 15.87,3.7575 15.8625,3.6075 C16.5675,3.0975 17.1825,2.46 17.67,1.7325 C17.025,2.0175 16.3275,2.2125 15.5925,2.3025 C16.3425,1.8525 16.9125,1.1475 17.1825,0.3 C16.485,0.7125 15.7125,1.0125 14.8875,1.1775 C14.2275,0.4725 13.29,0.0375 12.2475,0.0375 C10.2525,0.0375 8.6325,1.6575 8.6325,3.6525 C8.6325,3.9375 8.6625,4.215 8.73,4.4775 C5.7225,4.3275 3.06,2.8875 1.275,0.6975 C0.9675,1.23 0.7875,1.8525 0.7875,2.5125 C0.7875,3.765 1.425,4.875 2.4,5.52 C1.8075,5.505 1.2525,5.34 0.765,5.07 C0.765,5.085 0.765,5.1 0.765,5.115 C0.765,6.87 2.01,8.325 3.6675,8.6625 C3.3675,8.745 3.045,8.79 2.715,8.79 C2.4825,8.79 2.2575,8.7675 2.0325,8.7225 C2.49,10.1625 3.825,11.205 5.4075,11.235 C4.17,12.2025 2.61,12.78 0.915,12.78 C0.6225,12.78 0.3375,12.765 0.0525,12.7275 C1.635,13.7625 3.54,14.3625 5.58,14.3625" id="Path"></path>
                </g>
            </g>
        </g>
    </g>
</svg>