<?xml version="1.0" encoding="UTF-8" standalone="no"?>
<svg width="70px" height="70px" viewBox="0 0 70 70" version="1.1" xmlns="http://www.w3.org/2000/svg" xmlns:xlink="http://www.w3.org/1999/xlink">
    <!-- Generator: Sketch 49.3 (51167) - http://www.bohemiancoding.com/sketch -->
    <title>icn-recargar</title>
    <desc>Created with Sketch.</desc>
    <defs></defs>
    <g id="Pop-Up-recargar-página" stroke="none" stroke-width="1" fill="none" fill-rule="evenodd">
        <g id="Pop-Up-Volver-a-guardar-cotización" transform="translate(-332.000000, -149.000000)">
            <g id="icn-recargar" transform="translate(332.000000, 149.000000)">
                <path d="M35,0 C54.3299805,0 70,15.6700195 70,35 C70,54.3299805 54.3299805,70 35,70 C15.6700195,70 0,54.3299805 0,35 C0,15.6700195 15.6700195,0 35,0" id="Fill-1" fill="#30343F"></path>
                <path d="M35,5 C51.5685476,5 65,18.4314524 65,35 C65,51.5685476 51.5685476,65 35,65 C18.4314524,65 5,51.5685476 5,35 C5,18.4314524 18.4314524,5 35,5" id="Fill-4" fill="#FFFFFE"></path>
                <path d="M46.846543,26.9069336 C47.8831445,25.870332 47.8831445,24.1899219 46.846543,23.1535937 C45.8100781,22.1169922 44.129668,22.1169922 43.0933398,23.1535937 L33.0300195,33.2167773 L36.7833594,36.9701172 L46.846543,26.9069336" id="Fill-5" fill="#30343F"></path>
                <path d="M33.3906836,34.2634961 L18.4618164,49.1923633 C17.814043,49.8401367 17.814043,50.8905469 18.4618164,51.538457 C18.7857031,51.862207 19.2102148,52.0242188 19.6347266,52.0242188 C20.0591016,52.0242188 20.48375,51.862207 20.8076367,51.538457 L35.7365039,36.6094531 L33.3906836,34.2634961" id="Fill-6" fill="#F10D5E"></path>
                <path d="M23.3879297,19.6347266 C22.3514648,18.598125 20.6710547,18.598125 19.6347266,19.6347266 C18.598125,20.6711914 18.598125,22.3516016 19.6347266,23.3879297 L33.2166406,36.9699805 L36.9699805,33.2166406 L23.3879297,19.6347266" id="Fill-7" fill="#30343F"></path>
                <path d="M35,39.1469531 C32.7133789,39.1469531 30.8530469,37.2866211 30.8530469,35 C30.8530469,32.7133789 32.7133789,30.8530469 35,30.8530469 C37.2866211,30.8530469 39.1469531,32.7133789 39.1469531,35 C39.1469531,37.2866211 37.2866211,39.1469531 35,39.1469531" id="Fill-8" fill="#2792FF"></path>
                <path d="M15.7583398,36.6588086 L13.2701953,36.6588086 C12.354043,36.6588086 11.6113867,35.9160156 11.6113867,35 C11.6113867,34.0839844 12.354043,33.3411914 13.2701953,33.3411914 L15.7583398,33.3411914 C16.6744922,33.3411914 17.4170117,34.0839844 17.4170117,35 C17.4170117,35.9160156 16.6744922,36.6588086 15.7583398,36.6588086" id="Fill-9" fill="#B6B5B6"></path>
                <path d="M35,17.4170117 C34.0838477,17.4170117 33.3411914,16.6742187 33.3411914,15.7583398 L33.3411914,13.2701953 C33.3411914,12.3541797 34.0838477,11.6113867 35,11.6113867 C35.9161523,11.6113867 36.6588086,12.3541797 36.6588086,13.2701953 L36.6588086,15.7583398 C36.6588086,16.6742187 35.9161523,17.4170117 35,17.4170117" id="Fill-10" fill="#B6B5B6"></path>
                <path d="M56.7298047,36.6588086 L54.2416602,36.6588086 C53.3255078,36.6588086 52.5829883,35.9160156 52.5829883,35 C52.5829883,34.0839844 53.3255078,33.3411914 54.2416602,33.3411914 L56.7298047,33.3411914 C57.645957,33.3411914 58.3886133,34.0839844 58.3886133,35 C58.3886133,35.9160156 57.645957,36.6588086 56.7298047,36.6588086" id="Fill-11" fill="#B6B5B6"></path>
                <path d="M35,58.3886133 C34.0838477,58.3886133 33.3411914,57.6458203 33.3411914,56.7298047 L33.3411914,54.2416602 C33.3411914,53.3257812 34.0838477,52.5829883 35,52.5829883 C35.9161523,52.5829883 36.6588086,53.3257812 36.6588086,54.2416602 L36.6588086,56.7298047 C36.6588086,57.6458203 35.9161523,58.3886133 35,58.3886133" id="Fill-12" fill="#B6B5B6"></path>
            </g>
        </g>
    </g>
</svg>