<?xml version="1.0" encoding="UTF-8" standalone="no"?>
<svg width="82px" height="83px" viewBox="0 0 82 83" version="1.1" xmlns="http://www.w3.org/2000/svg" xmlns:xlink="http://www.w3.org/1999/xlink">
    <!-- Generator: Sketch 47.1 (45422) - http://www.bohemiancoding.com/sketch -->
    <title>img-error</title>
    <desc>Created with Sketch.</desc>
    <defs></defs>
    <g id="pop-up-error" stroke="none" stroke-width="1" fill="none" fill-rule="evenodd">
        <g id="error-1" transform="translate(-679.000000, -395.000000)">
            <g id="img-error" transform="translate(680.000000, 396.000000)">
                <path d="M77.0205714,79.7219163 C77.0205714,78.7709146 60.4514876,78 40.0102857,78 C19.5699703,78 3,78.7709146 3,79.7219163 C3,80.672918 19.5699703,81.4438326 40.0102857,81.4438326 C60.4514876,81.4438326 77.0205714,80.672918 77.0205714,79.7219163" id="Fill-9" fill="#939393" opacity="0.4"></path>
                <path d="M63.4217143,79.7219163 C63.4217143,78.7709146 53.2534542,78 40.7108571,78 C28.1682601,78 18,78.7709146 18,79.7219163 C18,80.672918 28.1682601,81.4438326 40.7108571,81.4438326 C53.2534542,81.4438326 63.4217143,80.672918 63.4217143,79.7219163" id="Fill-11" fill="#939393" opacity="0.6"></path>
                <g id="Page-1">
                    <path d="M50.1888857,39.347871 C51.7548857,38.4794839 53.8480286,36.8549677 55.9656,33.8369032 C53.0778857,34.2743226 50.7661714,36.4988387 50.1888857,39.347871" id="Fill-1" fill="#6C8A9C"></path>
                    <path d="M63.6989143,42.6562581 C62.1444857,44.5465806 60.4627714,46.1723871 58.6679143,47.5233548 C61.0902,46.9272258 63.0174857,45.0523871 63.6989143,42.6562581" id="Fill-3" fill="#6C8A9C"></path>
                    <path d="M41.9295857,13.2277419 C42.5467286,11.776129 43.3978714,10.4858065 44.4984429,9.37225806 C46.9875857,6.85354839 50.0193,5.40580645 53.6797286,4.40064516 C53.9175857,9.34516129 53.3094429,13.7658065 50.2468714,17.4948387 C47.9827286,20.2496774 43.3155857,22.7748387 40.5834429,22.7864516 C40.5294429,22.5954839 40.4265857,22.3980645 40.4188714,22.1980645 C40.2993,19.0974194 40.7107286,16.0909677 41.9295857,13.2277419 M17.6758714,76.38 C22.9035857,78.7425806 28.2611571,79.2367742 33.7563,77.4316129 C34.1420143,77.3051613 34.5393,77.2096774 34.9301571,77.1 C34.9700143,77.2445161 35.0060143,77.3064516 34.9983,77.3593548 C34.9751571,77.4987097 34.9263,77.6329032 34.8954429,77.7709677 C34.6935857,78.6987097 34.7553,79.0187097 35.2245857,79.2458065 C35.8880143,79.5645161 36.2467286,79.1051613 36.6157286,78.6548387 C36.8060143,78.4225806 37.0413,78.2316129 37.3395857,77.94 C37.4848714,78.5412903 37.5144429,78.9903226 37.7047286,79.3516129 C37.8461571,79.6225806 38.1675857,79.8909677 38.4543,79.9619355 C38.9055857,80.0754839 39.2398714,79.7683871 39.4095857,79.3270968 C39.5677286,78.9141935 39.3761571,78.38 39.7811571,77.8987097 C40.2015857,78.376129 40.4998714,78.7593548 40.8457286,79.0909677 C41.1080143,79.3412903 41.4410143,79.4522581 41.8035857,79.2612903 C42.2201571,79.0419355 42.4335857,78.7051613 42.3371571,78.2212903 C42.2780143,77.9064516 42.1700143,77.6032258 42.0838714,77.3090323 C42.2831571,77.2303226 42.3538714,77.1735484 42.4027286,77.1864516 C42.8733,77.3154839 43.3425857,77.4522581 43.8093,77.5941935 C47.4941571,78.7103226 51.2034429,78.8070968 54.9461571,77.9025806 C60.7190143,76.5077419 65.4183,73.3129032 69.1983,68.7154839 C74.9403,61.7335484 77.4757286,53.5890323 76.9974429,44.4935484 C76.7724429,40.2070968 75.7271571,36.1193548 73.7085857,32.3890323 L73.3910143,32.5593548 C72.9718714,32.8083871 72.5283,33.0974194 72.0744429,33.4109677 C73.2328714,35.6354839 74.0480143,38.0367742 74.5404429,40.5890323 C74.9300143,42.6096774 75.0457286,44.6870968 75.2064429,46.0612903 C74.9313,55.9864516 71.7980143,63.9103226 65.1174429,70.2006452 C61.7668714,73.3541935 57.8403,75.4225806 53.3261571,76.2406452 C48.8377286,77.056129 44.5935857,76.34 40.6091571,74.0974194 C38.2344429,72.7619355 38.6420143,72.8909677 36.4704429,74.0909677 C30.9778714,77.1258065 25.3117286,77.3167742 19.5401571,75.0458065 C15.4207286,73.423871 11.9878714,70.7774194 9.19144286,67.3012903 C3.80172857,60.6045161 1.39872857,52.8651613 1.9773,44.2187097 C2.31801429,39.1322581 3.88144286,34.4083871 6.9183,30.3141935 C11.5995857,23.9916129 17.8263,21.1787097 25.5277286,22.0922581 C29.4054429,22.5529032 32.8743,24.1967742 36.0191571,26.5567742 C36.4678714,26.8948387 36.8998714,27.2574194 37.3498714,27.5929032 C38.1148714,28.1606452 38.8991571,28.1774194 39.6718714,27.6109677 C40.1810143,27.2380645 40.6657286,26.8290323 41.1761571,26.456129 C44.8931571,23.7529032 48.9624429,22.056129 53.5704429,21.9258065 C57.6667286,21.8096774 61.2963,22.8496774 64.4913,24.9309677 C65.1148714,24.4380645 65.6793,24.0096774 66.1588714,23.6535484 C62.1770143,20.856129 57.4211571,19.6148387 51.8578714,20.0354839 C51.5518714,20.0587097 51.1790143,20.2935484 50.8717286,19.696129 C53.0780143,17.4806452 54.4395857,14.7219355 55.0785857,11.5851613 C55.7060143,8.49225806 55.9451571,5.39419355 55.2354429,2.02129032 C48.5240143,3.46516129 42.8938714,6.20967742 39.4905857,12.8316129 L39.4905857,11.1593548 C39.4905857,8.22774194 39.4918714,5.29741935 39.4893,2.36580645 C39.4893,1.86516129 39.4918714,1.36322581 39.4443,0.86516129 C39.4005857,0.389032258 39.1061571,0.0961290323 38.6471571,0.0109677419 C38.1958714,-0.0716129032 37.6790143,0.315483871 37.6160143,0.850967742 C37.5401571,1.48709677 37.5337286,2.13354839 37.5337286,2.77483871 C37.5285857,9.42387097 37.5337286,16.0716129 37.5234429,22.7219355 C37.5221571,23.4019355 37.6584429,24.1180645 37.3485857,24.7425806 C36.6967286,24.7993548 36.3830143,24.3541935 35.9690143,24.1309677 C34.4917286,23.3348387 33.0723,22.4006452 31.5384429,21.7477419 C21.5960143,17.5193548 10.9078714,20.8187097 4.81358571,29.9387097 C3.34787143,32.1348387 2.2383,34.5103226 1.44244286,37.0432258 C-2.08041429,48.2535484 0.998871429,61.536129 9.0513,70.0806452 C11.5481571,72.7309677 14.3844429,74.8935484 17.6758714,76.38" id="Fill-5" stroke="#F10D5E" fill="#F10D5E"></path>
                    <path d="M76.7581714,24.1430968 C76.7581714,23.5508387 76.2798857,23.0695484 75.6897429,23.0695484 C75.0996,23.0695484 74.6213143,23.5508387 74.6213143,24.1430968 C74.6213143,24.7353548 75.0996,25.2153548 75.6897429,25.2153548 C76.2798857,25.2153548 76.7581714,24.7353548 76.7581714,24.1430968" id="Fill-7" fill="#5C5F60"></path>
                    <path d="M50.1888857,39.347871 C50.7661714,36.4988387 53.0778857,34.2743226 55.9656,33.8369032 C53.8480286,36.8549677 51.7548857,38.4794839 50.1888857,39.347871 M63.6991714,42.6562581 C63.0177429,45.0523871 61.0904571,46.9272258 58.6681714,47.5233548 C60.4630286,46.1723871 62.1447429,44.5465806 63.6991714,42.6562581 M80.6976,23.5310968 C79.6986,20.5156129 76.4418857,18.8794839 73.4371714,19.8820645 C72.6618857,20.140129 69.5761714,21.5220645 69.5761714,21.5220645 L67.6450286,22.5814194 C67.6450286,22.5814194 67.0574571,22.9865806 66.1587429,23.6536774 C65.6791714,24.0098065 65.1147429,24.4381935 64.4911714,24.9310968 C62.2476,26.6988387 59.3238857,29.2214194 57.5148857,31.6291613 C57.3464571,31.6188387 57.1767429,31.6136774 57.0083143,31.6136774 C51.9914571,31.6136774 47.9118857,35.7091613 47.9118857,40.744 C47.9118857,45.7762581 51.9914571,49.8717419 57.0083143,49.8717419 C62.0238857,49.8717419 66.1047429,45.7762581 66.1047429,40.744 C66.1047429,40.3285161 66.0726,39.9143226 66.0186,39.5052903 C66.8003143,38.3504516 67.6887429,37.2614194 68.6671714,36.2665806 C69.0811714,35.8446452 69.0760286,35.1646452 68.6556,34.7491613 C68.2364571,34.3336774 67.5601714,34.3388387 67.1448857,34.7594839 C66.0263143,35.8975484 65.0118857,37.147871 64.1311714,38.4756129 C61.5018857,42.4330323 58.4136,45.4369032 54.9498857,47.4149677 C52.4298857,46.6304516 50.5193143,44.4459355 50.1246,41.7710968 C52.0711714,40.9143226 55.1568857,38.9414194 58.1320286,34.4627097 C60.5941714,30.7569032 63.4728857,28.0614194 66.1368857,26.1285161 C66.7206,25.7052903 67.2914571,25.3246452 67.8481714,24.9723871 C70.6446,23.2007742 73.0180286,22.2820645 74.1108857,21.9181935 C75.9970286,21.2885161 78.0426,22.3156129 78.6687429,24.2085161 C79.2974571,26.1014194 78.2727429,28.1530323 76.3866,28.7827097 C75.8864571,28.9491613 74.4361714,29.4820645 72.6027429,30.540129 C72.0948857,30.8330323 71.5561714,31.1736774 71.0007429,31.5517419 C70.8233143,31.6717419 70.6484571,31.7852903 70.4658857,31.9156129 C69.9863143,32.260129 69.8770286,32.9298065 70.2203143,33.4110968 C70.5636,33.8936774 71.2308857,34.0046452 71.7104571,33.6588387 C71.8351714,33.5710968 71.9534571,33.4936774 72.0743143,33.4098065 C72.5281714,33.0975484 72.9717429,32.8085161 73.3908857,32.5594839 L73.7084571,32.3891613 L75.3078857,31.5362581 C76.1513143,31.1388387 76.7774571,30.9130323 77.0603143,30.8188387 C80.0650286,29.8149677 81.6966,26.5465806 80.6976,23.5310968" id="Fill-9" fill="#5C5F60"></path>
                </g>
            </g>
        </g>
    </g>
</svg>